<svg width="283" height="283" viewBox="0 0 283 283" fill="none" xmlns="http://www.w3.org/2000/svg">
<rect width="283" height="283" rx="43.9441" fill="white"/>
<path d="M75.4198 75.3745C75.9672 73.7651 76.3689 72.1473 76.9498 70.5179C80.7265 59.9248 88.4546 50.3217 97.8524 44.2204C106.248 38.7186 115.983 35.6081 126.013 35.2228C130.075 35.0412 132.198 35.487 135.985 36.0342C147.79 37.7402 157.14 43.0017 165.884 51.0173C172.072 48.8314 182.935 48.8349 189.388 50.03C203.868 52.8 216.64 61.2404 224.867 73.4745C227.808 77.7694 229.561 82.3141 231.282 87.1746C234.895 97.3712 234.086 107.035 232.17 117.398C232.934 118.482 234.372 119.9 235.269 121.065C239.311 126.318 242.26 130.643 244.451 136.993C249.185 150.593 248.605 166.441 242.106 179.392C236.821 189.921 228.133 198.747 217.515 203.921C214.318 205.478 211.026 206.406 207.689 207.52C205.789 211.761 204.681 216.787 202.117 220.786C200.013 224.07 197.306 228.183 194.448 230.828C193.007 232.536 191.19 234.069 189.457 235.489C181.216 242.269 171.087 246.35 160.445 247.178C150.681 247.991 140.722 246.538 131.901 242.146C130.548 241.472 126.44 239.376 125.502 238.245C122.158 236.283 119.945 233.989 117.022 231.767C111.194 234.223 98.4673 233.894 92.2203 232.522C77.8387 229.33 65.3054 220.574 57.3593 208.17C55.073 204.577 54.1526 201.834 52.6545 198.016C48.4409 187.275 48.5798 176.928 51.052 165.848C50.1152 164.683 48.9124 163.572 47.9578 162.341C43.4914 156.579 40.4739 151.864 38.2366 144.877C35.1747 135.898 34.8152 127.703 36.2549 118.448C38.9348 101.221 50.242 86.5982 65.7282 78.8132C68.3538 77.4933 72.5571 76.2984 75.4198 75.3745Z" fill="#F06214"/>
<path d="M173.8 141.311L188.974 119.5C191.702 115.579 197.092 114.611 201.013 117.339C204.934 120.066 205.901 125.456 203.173 129.377L173.579 171.919L153.2 141.7L132.41 171.873L111.63 141.625L96.3741 163.861C93.6717 167.799 88.2883 168.801 84.3499 166.099C80.4115 163.396 79.4095 158.013 82.1119 154.074L111.622 111.066L132.431 141.357L153.355 110.992L173.8 141.311Z" fill="white"/>
</svg>
